#!OML:ASF E:\id_vita\Project 1\Capture day 1\Session 1\Male1.ASF
:FULLY-SPECIFIED
:DEGREES
540
root 34.3075 16.6387 3.86331 147.172 72.3677 130.938
lowerback 29.0755 4.69851 1.74149
upperback 7.16897 7.29505 1.15506
thorax -7.81484 3.71727 -2.26577
lowerneck -13.0635 -4.7491 -6.67276
upperneck -0.614915 -5.58316 11.2435
head 2.45739 -2.32827 4.16826
rclavicle 7.79236e-014 7.31528e-014
rhumerus -166.594 -132.002 -272.587
rradius -1.3539
rwrist -340.074
rhand -47.4792 50.7041
rfingers 7.12502
rthumb -20.1679 -338.269
lclavicle 7.79236e-014 7.31528e-014
lhumerus -52.5301 45.4087 29.8952
lradius 27.3673
lwrist -8.73996
lhand -14.0751 37.8517
lfingers 7.12502
lthumb 12.0567 427.484
rfemur -13.4793 -16.2728 20.1757
rtibia 37.0477
rfoot -21.4498 -2.40895
rtoes -19.8319
lfemur -67.5109 -8.92665 -28.2089
ltibia 70.7404
lfoot -20.2175 -6.36457
ltoes 37.799
541
root 34.2867 16.6774 3.92797 146.976 72.6421 131.203
lowerback 28.8161 4.70262 1.46676
upperback 6.96387 7.22214 1.37598
thorax -7.98809 3.67151 -1.83466
lowerneck -12.8623 -4.77157 -7.08895
upperneck -0.921648 -5.5502 11.922
head 2.37071 -2.29521 4.45352
rclavicle -3.18055e-015 -1.90833e-014
rhumerus -168.891 -132.745 -270.705
rradius -0.44378
rwrist -339.737
rhand -47.5087 51.5722
rfingers 7.12502
rthumb -20.1962 -337.398
lclavicle -3.18055e-015 -1.90833e-014
lhumerus -52.7898 45.1927 29.7062
lradius 27.4191
lwrist -7.99068
lhand -14.8987 37.5501
lfingers 7.12502
lthumb 11.2625 427.228
rfemur -13.258 -16.8628 20.032
rtibia 37.7516
rfoot -22.1657 -4.25597
rtoes -21.9359
lfemur -66.8556 -8.59976 -27.7342
ltibia 70.1962
lfoot -19.9369 -6.40478
ltoes 38.0651
542
root 34.2697 16.7167 3.99333 147.052 72.8435 131.93
lowerback 28.6541 4.59885 1.33515
upperback 6.76832 7.06053 1.58682
thorax -8.17943 3.58526 -1.47247
lowerneck -12.135 -4.52614 -7.3289
upperneck -1.65204 -5.15889 12.5922
head 2.0352 -2.10844 4.74258
rclavicle -2.54444e-014 0
rhumerus -170.942 -133.556 -269.024
rradius 0.155657
rwrist -339.727
rhand -47.5217 52.7657
rfingers 7.12502
rthumb -20.2088 -336.203
lclavicle -2.54444e-014 0
lhumerus -52.9997 44.9749 29.3007
lradius 27.284
lwrist -7.4993
lhand -15.4489 37.5407
lfingers 7.12502
lthumb 10.7317 427.247
rfemur -12.7301 -17.2154 19.8095
rtibia 38.3622
rfoot -22.8368 -5.23471
rtoes -21.5705
lfemur -66.0144 -8.36832 -27.2379
ltibia 69.7099
lfoot -19.7353 -6.40126
ltoes 38.0935
543
root 34.257 16.7606 4.05715 146.911 73.089 132.586
lowerback 28.5536 4.53012 1.34421
upperback 6.65801 6.99429 1.82215
thorax -8.28786 3.549 -1.19435
lowerneck -11.6963 -4.32204 -7.62703
upperneck -2.11454 -4.82064 13.1231
head 1.82331 -1.94167 4.98758
rclavicle 5.40694e-014 -4.77083e-014
rhumerus -172.555 -134.255 -267.527
rradius 0.479513
rwrist -339.824
rhand -47.6977 53.7906
rfingers 7.12502
rthumb -20.3779 -335.16
lclavicle 5.40694e-014 -4.77083e-014
lhumerus -53.1376 45.0284 28.8161
lradius 26.9774
lwrist -7.49714
lhand -16.2864 37.2992
lfingers 7.12502
lthumb 9.92385 427.045
rfemur -11.945 -17.6333 19.4159
rtibia 38.8839
rfoot -22.7016 -6.21123
rtoes -18.3728
lfemur -64.9544 -8.07624 -26.749
ltibia 69.243
lfoot -19.5707 -6.39678
ltoes 38.2836
544
root 34.2275 16.7868 4.12063 147.63 73.4803 134.168
lowerback 28.4809 4.30164 1.53582
upperback 6.88122 6.81595 2.17941
thorax -8.02977 3.48392 -0.830281
lowerneck -12.7342 -4.18408 -7.68374
upperneck -2.05364 -4.55233 13.2954
head 1.9863 -1.75335 5.05846
rclavicle -3.81667e-014 6.67916e-014
rhumerus -173.012 -135.322 -266.969
rradius 0.867599
rwrist -339.985
rhand -47.755 54.6767
rfingers 7.12502
rthumb -20.4329 -334.268
lclavicle -3.81667e-014 6.67916e-014
lhumerus -53.6036 46.1423 27.9323
lradius 26.6476
lwrist -7.91585
lhand -17.1745 36.3698
lfingers 7.12502
lthumb 9.06695 426.155
rfemur -11.034 -18.1617 19.3197
rtibia 39.3307
rfoot -20.4596 -9.00117
rtoes -14.1547
lfemur -64.0477 -7.75349 -25.9546
ltibia 68.9066
lfoot -19.3992 -6.38772
ltoes 38.592
545
root 34.2185 16.8084 4.18565 146.862 73.2678 134.177
lowerback 28.0508 4.17696 1.24858
upperback 6.87058 6.57524 2.26807
thorax -7.87669 3.37978 -0.457401
lowerneck -12.5484 -4.0443 -7.1412
upperneck -2.23134 -4.41995 13.1332
head 1.87274 -1.70157 4.92878
rclavicle -8.42847e-014 -7.63333e-014
rhumerus -174.439 -135.992 -265.907
rradius 1.43972
rwrist -340.303
rhand -47.6042 54.7547
rfingers 7.12502
rthumb -20.2881 -334.206
lclavicle -8.42847e-014 -7.63333e-014
lhumerus -53.9162 46.3421 27.0686
lradius 26.374
lwrist -8.17514
lhand -17.2473 36.0619
lfingers 7.12502
lthumb 8.99675 425.85
rfemur -9.98476 -18.2551 18.1345
rtibia 39.6679
rfoot -20.0377 -9.25945
rtoes -9.37487
lfemur -62.9696 -7.80714 -25.9778
ltibia 68.5408
lfoot -19.3888 -6.17432
ltoes 38.5837
546
root 34.1872 16.8323 4.25186 148.434 73.6604 136.295
lowerback 27.7858 4.04668 1.98462
upperback 6.54695 6.60788 2.45067
thorax -8.05447 3.36811 -0.676878
lowerneck -12.2569 -4.07084 -6.86509
upperneck -2.17882 -4.51633 13.1117
head 1.84476 -1.76238 4.87187
rclavicle 1.11319e-014 8.5875e-014
rhumerus -175.892 -136.326 -264.739
rradius 1.73655
rwrist -340.685
rhand -47.4689 54.2693
rfingers 7.12502
rthumb -20.158 -334.705
lclavicle 1.11319e-014 8.5875e-014
lhumerus -53.6787 46.1696 26.5707
lradius 26.0009
lwrist -8.31843
lhand -16.9372 36.5499
lfingers 7.12502
lthumb 9.29598 426.325
rfemur -9.42571 -17.8383 18.1339
rtibia 39.8919
rfoot -19.6406 -9.72799
rtoes -6.14268
lfemur -62.5116 -7.60079 -24.9719
ltibia 68.2463
lfoot -19.1538 -6.1418
ltoes 38.3216
547
root 34.1586 16.8675 4.30658 149.423 74.2223 137.872
lowerback 27.5149 3.89788 2.7189
upperback 6.36561 6.61335 2.55828
thorax -8.05795 3.35193 -0.960095
lowerneck -12.2241 -4.03752 -6.48843
upperneck -2.18889 -4.51582 13.2266
head 1.83247 -1.75799 4.84524
rclavicle 1.19271e-013 9.85972e-014
rhumerus -176.889 -136.857 -264.065
rradius 1.99487
rwrist -341.109
rhand -47.2641 54.8692
rfingers 7.12502
rthumb -19.9611 -334.126
lclavicle 1.19271e-013 9.85972e-014
lhumerus -53.4695 46.3143 25.9476
lradius 25.6207
lwrist -8.3693
lhand -16.688 37.1771
lfingers 7.12502
lthumb 9.53643 426.941
rfemur -8.82412 -17.2935 17.9098
rtibia 39.9948
rfoot -20.2668 -10.0653
rtoes -5.95482
lfemur -61.8668 -7.25899 -24.0237
ltibia 67.8989
lfoot -18.9962 -6.05266
ltoes 38.2446
548
root 34.1364 16.8999 4.35574 148.276 74.6888 137.385
lowerback 27.2844 3.91791 2.98386
upperback 6.23001 6.6937 2.58194
thorax -8.06747 3.37813 -1.09718
lowerneck -11.9361 -4.08913 -6.48099
upperneck -2.26262 -4.59373 13.5392
head 1.78441 -1.79891 4.93914
rclavicle 2.70347e-014 -6.36111e-015
rhumerus -178.09 -137.389 -263.222
rradius 2.44831
rwrist -341.615
rhand -46.9597 55.7487
rfingers 7.12502
rthumb -19.6685 -333.276
lclavicle 2.70347e-014 -6.36111e-015
lhumerus -53.3259 46.1658 25.6009
lradius 25.4608
lwrist -8.13859
lhand -16.3009 37.6683
lfingers 7.12502
lthumb 9.90985 427.415
rfemur -8.06311 -16.5136 16.927
rtibia 39.9764
rfoot -20.333 -10.2737
rtoes -3.22695
lfemur -60.9493 -6.87573 -23.6516
ltibia 67.5491
lfoot -19.0314 -5.80494
ltoes 38.4103
549
root 34.1152 16.9226 4.40711 145.555 75.1527 135.249
lowerback 27.0256 4.07843 2.80381
upperback 6.11928 6.82433 2.57923
thorax -8.07938 3.43496 -1.02654
lowerneck -11.7674 -4.11871 -6.55289
upperneck -2.20127 -4.64311 13.7072
head 1.78865 -1.82429 5.00136
rclavicle 5.24792e-014 6.67916e-014
rhumerus -178.973 -138.035 -262.467
rradius 2.60418
rwrist -342.235
rhand -46.6665 55.9246
rfingers 7.12502
rthumb -19.3866 -333.129
lclavicle 5.24792e-014 6.67916e-014
lhumerus -53.0291 45.5657 25.8115
lradius 25.4595
lwrist -7.13742
lhand -16.239 37.9564
lfingers 7.12502
lthumb 9.96956 427.7
rfemur -7.25882 -15.5168 15.5746
rtibia 39.7942
rfoot -20.0564 -10.44
rtoes -1.64748
lfemur -60.0833 -6.36345 -23.5897
ltibia 67.1971
lfoot -19.0424 -5.50317
ltoes 38.5273
550
root 34.0822 16.9327 4.46678 144.567 75.5499 134.891
lowerback 26.7714 3.92035 2.8127
upperback 5.81224 6.60657 2.6419
thorax -8.30886 3.31283 -0.887697
lowerneck -11.3567 -3.91868 -6.04337
upperneck -1.85254 -4.49601 13.5195
head 1.79184 -1.76941 4.86869
rclavicle 4.13472e-014 6.67916e-014
rhumerus -180.002 -139.221 -262.002
rradius 2.54675
rwrist -343.106
rhand -46.3716 56.3579
rfingers 7.12502
rthumb -19.103 -332.724
lclavicle 4.13472e-014 6.67916e-014
lhumerus -53.1848 44.3645 25.6708
lradius 25.5199
lwrist -5.35289
lhand -16.4136 38.4327
lfingers 7.12502
lthumb 9.8011 428.185
rfemur -6.39645 -14.807 14.6714
rtibia 39.4306
rfoot -19.8956 -10.1974
rtoes -0.268037
lfemur -59.4101 -6.03724 -23.1462
ltibia 66.9159
lfoot -18.8578 -5.38032
ltoes 38.5273
